<?xml version="1.0" encoding="iso-8859-1"?>
<!-- Generator: Adobe Illustrator 17.1.0, SVG Export Plug-In . SVG Version: 6.00 Build 0)  -->
<!DOCTYPE svg PUBLIC "-//W3C//DTD SVG 1.1//EN" "http://www.w3.org/Graphics/SVG/1.1/DTD/svg11.dtd">
<svg xmlns="http://www.w3.org/2000/svg" xmlns:xlink="http://www.w3.org/1999/xlink" version="1.1" id="Capa_1" x="0px" y="0px" viewBox="0 0 297.75 297.75" style="enable-background:new 0 0 297.75 297.75;" xml:space="preserve" width="512px" height="512px">
<path d="M260.757,82.845l9.181-14.324c0.328-0.513,0.605-1.045,0.852-1.586c0.205-0.448,0.391-0.902,0.54-1.365  c0.127-0.394,0.227-0.793,0.314-1.194c0.138-0.639,0.232-1.284,0.269-1.931c0.021-0.351,0.026-0.702,0.018-1.053  c-0.079-3.157-1.338-6.264-3.701-8.625c-0.056-0.056-0.112-0.112-0.168-0.168c-0.005-0.005-0.01-0.009-0.015-0.014  c-0.282-0.281-0.577-0.544-0.879-0.794c-0.104-0.086-0.212-0.162-0.318-0.243c-0.209-0.162-0.419-0.321-0.636-0.468  c-0.129-0.087-0.26-0.167-0.392-0.249c-0.203-0.127-0.407-0.25-0.615-0.364c-0.141-0.077-0.283-0.15-0.426-0.222  c-0.208-0.104-0.418-0.201-0.63-0.293c-0.146-0.063-0.292-0.125-0.44-0.183c-0.22-0.085-0.442-0.161-0.666-0.234  c-0.144-0.047-0.287-0.096-0.432-0.138c-0.248-0.071-0.499-0.129-0.75-0.185c-0.123-0.027-0.245-0.061-0.369-0.084  c-0.375-0.071-0.752-0.127-1.131-0.164c-0.045-0.004-0.091-0.004-0.136-0.008c-0.337-0.029-0.674-0.047-1.012-0.049  c-0.027,0-0.054-0.004-0.081-0.004c-0.271,0-0.543,0.012-0.814,0.029c-0.029,0.002-0.057,0.001-0.086,0.003  c-0.332,0.024-0.663,0.063-0.992,0.113c-0.104,0.016-0.206,0.038-0.31,0.057c-0.227,0.04-0.452,0.083-0.677,0.136  c-0.124,0.029-0.246,0.063-0.369,0.096c-0.205,0.054-0.408,0.113-0.611,0.178c-0.127,0.041-0.253,0.084-0.379,0.129  c-0.2,0.071-0.397,0.149-0.594,0.23c-0.121,0.05-0.242,0.099-0.361,0.154c-0.211,0.095-0.419,0.2-0.626,0.308  c-0.1,0.052-0.201,0.1-0.3,0.155c-0.303,0.168-0.602,0.347-0.895,0.542l-7.3,4.767C219.549,21.948,179.304,0,133.304,0v0.255  c-44,0.117-81.08,31.575-81.08,70.231c0,0.381,0.112,0.755,0.14,1.128c-0.028,0.374-0.015,0.748-0.015,1.128  c0,14.231,4.693,27.686,13.176,37.883c9.15,11,21.623,17.058,35.101,17.058c0.049,0,0.102-0.007,0.151-0.007  c0.049,0,0.099,0.007,0.148,0.007c21.686,0,38.673-14.047,38.673-31.979c0-8.284-6.715-15-14.999-15  c-8.029,0-14.585,6.309-14.981,14.24c-0.869,0.912-3.87,2.738-8.69,2.738c-0.049,0-0.096,0.007-0.145,0.007  c-0.049,0-0.096-0.007-0.145-0.007c-10.061,0-18.246-11.188-18.246-24.94c0-0.381-0.029-0.755-0.057-1.128  c0.028-0.374,0.057-0.748,0.057-1.128c0-22.187,23.101-40.236,51.496-40.236c0.833,0,1.644-0.085,2.44-0.216  c33.982,0.829,64.166,17.326,83.585,42.525L201.08,85.144l-67.969,45.422h0h0h0l-46.486,66.62c-0.949-0.126-1.961-0.205-3.054-0.205  c-10.037,0-21.039,5.901-32.701,17.562C26.048,239.365,25.26,288.25,25.238,290.32c-0.021,2.015,0.771,3.904,2.194,5.329  c1.407,1.409,3.316,2.101,5.306,2.101c0.023,0,0.047,0,0.07,0c1.907,0,43.515-0.565,69.487-20h31.591  c76.438,0,138.625-62.299,138.625-138.875C272.512,118.948,268.314,99.992,260.757,82.845z M135.166,153.834l33.534,33.533  l-45.138,30.016L104.278,198.1L135.166,153.834z M133.887,247.75h-8.87c1.744-5.78,1.456-10.377,0.58-13.707l66.663-44.329  l47.678-74.387c1.68,7.586,2.574,15.464,2.574,23.548C242.512,198.909,193.783,247.75,133.887,247.75z" fill="#FFFFFF"/>
<g>
</g>
<g>
</g>
<g>
</g>
<g>
</g>
<g>
</g>
<g>
</g>
<g>
</g>
<g>
</g>
<g>
</g>
<g>
</g>
<g>
</g>
<g>
</g>
<g>
</g>
<g>
</g>
<g>
</g>
</svg>
